<?xml version="1.0" encoding="UTF-8"?>
<svg xmlns="http://www.w3.org/2000/svg" version="1.1" width="100" height="100" viewBox="0 0 100 100"><rect x="0" y="0" width="100" height="100" fill="#ffffff"/><g transform="scale(3.448)"><g transform="translate(0,0)"><path fill-rule="evenodd" d="M8 0L8 1L10 1L10 0ZM13 0L13 2L11 2L11 4L10 4L10 3L9 3L9 2L8 2L8 5L9 5L9 6L8 6L8 7L9 7L9 8L8 8L8 9L7 9L7 8L6 8L6 9L7 9L7 10L5 10L5 9L4 9L4 8L0 8L0 9L2 9L2 11L3 11L3 9L4 9L4 11L7 11L7 12L6 12L6 13L5 13L5 14L4 14L4 13L3 13L3 14L4 14L4 15L2 15L2 16L3 16L3 17L2 17L2 19L3 19L3 18L4 18L4 20L3 20L3 21L5 21L5 18L6 18L6 19L8 19L8 17L7 17L7 16L6 16L6 17L5 17L5 18L4 18L4 15L5 15L5 14L6 14L6 15L7 15L7 14L8 14L8 15L9 15L9 16L10 16L10 15L11 15L11 14L12 14L12 16L11 16L11 17L10 17L10 18L11 18L11 19L9 19L9 20L6 20L6 21L8 21L8 22L10 22L10 27L11 27L11 28L10 28L10 29L11 29L11 28L12 28L12 29L13 29L13 28L12 28L12 26L13 26L13 27L14 27L14 29L16 29L16 28L17 28L17 27L19 27L19 26L17 26L17 25L18 25L18 24L17 24L17 21L18 21L18 23L20 23L20 25L21 25L21 26L20 26L20 28L19 28L19 29L22 29L22 27L21 27L21 26L22 26L22 25L24 25L24 26L23 26L23 28L24 28L24 26L26 26L26 27L25 27L25 29L26 29L26 27L27 27L27 29L28 29L28 27L29 27L29 25L28 25L28 27L27 27L27 26L26 26L26 25L27 25L27 24L28 24L28 22L29 22L29 21L27 21L27 18L28 18L28 15L29 15L29 13L27 13L27 12L25 12L25 9L27 9L27 8L24 8L24 9L22 9L22 8L21 8L21 9L18 9L18 7L19 7L19 6L20 6L20 7L21 7L21 5L20 5L20 4L18 4L18 3L17 3L17 1L18 1L18 2L19 2L19 3L21 3L21 2L19 2L19 1L21 1L21 0L16 0L16 3L17 3L17 4L14 4L14 0ZM12 3L12 5L10 5L10 6L9 6L9 7L10 7L10 8L9 8L9 9L8 9L8 10L9 10L9 11L8 11L8 12L7 12L7 13L6 13L6 14L7 14L7 13L8 13L8 14L9 14L9 15L10 15L10 13L11 13L11 11L13 11L13 10L14 10L14 9L15 9L15 11L14 11L14 12L12 12L12 14L13 14L13 15L14 15L14 16L12 16L12 17L11 17L11 18L12 18L12 17L14 17L14 18L13 18L13 20L14 20L14 21L15 21L15 22L14 22L14 23L11 23L11 25L12 25L12 24L13 24L13 26L14 26L14 27L15 27L15 28L16 28L16 27L17 27L17 26L14 26L14 24L15 24L15 23L16 23L16 21L15 21L15 20L17 20L17 17L18 17L18 20L20 20L20 16L19 16L19 13L20 13L20 14L21 14L21 16L22 16L22 17L21 17L21 19L22 19L22 20L26 20L26 18L25 18L25 17L24 17L24 16L22 16L22 14L21 14L21 13L24 13L24 14L25 14L25 16L26 16L26 17L27 17L27 15L26 15L26 13L25 13L25 12L23 12L23 10L19 10L19 11L18 11L18 10L17 10L17 12L16 12L16 13L17 13L17 14L15 14L15 15L14 15L14 14L13 14L13 13L15 13L15 11L16 11L16 9L15 9L15 7L16 7L16 8L17 8L17 7L18 7L18 5L15 5L15 7L14 7L14 5L13 5L13 3ZM12 5L12 7L11 7L11 6L10 6L10 7L11 7L11 8L12 8L12 7L13 7L13 5ZM16 6L16 7L17 7L17 6ZM28 8L28 10L26 10L26 11L28 11L28 12L29 12L29 11L28 11L28 10L29 10L29 8ZM9 9L9 10L10 10L10 9ZM19 11L19 12L21 12L21 11ZM1 12L1 13L2 13L2 12ZM9 12L9 13L10 13L10 12ZM17 12L17 13L18 13L18 12ZM0 14L0 15L1 15L1 14ZM15 15L15 16L17 16L17 15ZM0 16L0 17L1 17L1 16ZM18 16L18 17L19 17L19 16ZM6 17L6 18L7 18L7 17ZM15 17L15 19L16 19L16 17ZM23 17L23 18L22 18L22 19L24 19L24 17ZM0 18L0 19L1 19L1 18ZM11 19L11 20L12 20L12 19ZM1 20L1 21L2 21L2 20ZM9 20L9 21L10 21L10 22L12 22L12 21L10 21L10 20ZM19 21L19 22L20 22L20 21ZM21 21L21 24L24 24L24 21ZM22 22L22 23L23 23L23 22ZM26 22L26 24L25 24L25 25L26 25L26 24L27 24L27 22ZM16 24L16 25L17 25L17 24ZM8 25L8 29L9 29L9 25ZM0 0L0 7L7 7L7 0ZM1 1L1 6L6 6L6 1ZM2 2L2 5L5 5L5 2ZM22 0L22 7L29 7L29 0ZM23 1L23 6L28 6L28 1ZM24 2L24 5L27 5L27 2ZM0 22L0 29L7 29L7 22ZM1 23L1 28L6 28L6 23ZM2 24L2 27L5 27L5 24Z" fill="#000000"/></g></g></svg>
