<?xml version="1.0" encoding="UTF-8"?>
<svg xmlns="http://www.w3.org/2000/svg" version="1.1" width="100" height="100" viewBox="0 0 100 100"><rect x="0" y="0" width="100" height="100" fill="#ffffff"/><g transform="scale(4)"><g transform="translate(0,0)"><path fill-rule="evenodd" d="M8 0L8 4L9 4L9 3L10 3L10 5L8 5L8 7L9 7L9 8L11 8L11 11L10 11L10 13L11 13L11 15L10 15L10 16L9 16L9 17L8 17L8 15L9 15L9 14L8 14L8 15L7 15L7 14L6 14L6 13L7 13L7 12L8 12L8 13L9 13L9 11L8 11L8 10L6 10L6 9L7 9L7 8L4 8L4 9L2 9L2 8L0 8L0 9L2 9L2 13L1 13L1 12L0 12L0 14L3 14L3 15L2 15L2 16L0 16L0 17L2 17L2 16L3 16L3 17L5 17L5 16L6 16L6 17L8 17L8 18L9 18L9 19L8 19L8 21L9 21L9 19L11 19L11 20L10 20L10 23L8 23L8 25L13 25L13 24L12 24L12 21L13 21L13 23L14 23L14 24L15 24L15 25L16 25L16 23L14 23L14 22L16 22L16 21L17 21L17 23L19 23L19 24L17 24L17 25L19 25L19 24L20 24L20 21L23 21L23 23L22 23L22 25L25 25L25 24L24 24L24 22L25 22L25 21L24 21L24 20L25 20L25 19L24 19L24 20L23 20L23 19L22 19L22 18L21 18L21 16L19 16L19 15L20 15L20 14L21 14L21 15L22 15L22 17L23 17L23 18L24 18L24 17L25 17L25 15L24 15L24 16L23 16L23 15L22 15L22 14L24 14L24 13L25 13L25 11L24 11L24 12L23 12L23 11L21 11L21 10L22 10L22 9L23 9L23 10L24 10L24 9L25 9L25 8L21 8L21 9L20 9L20 8L19 8L19 9L20 9L20 11L19 11L19 12L17 12L17 13L16 13L16 12L15 12L15 13L14 13L14 14L12 14L12 13L13 13L13 12L11 12L11 11L18 11L18 10L17 10L17 8L16 8L16 7L17 7L17 6L16 6L16 7L15 7L15 6L14 6L14 7L15 7L15 8L16 8L16 9L13 9L13 8L12 8L12 7L13 7L13 6L12 6L12 7L11 7L11 6L10 6L10 5L12 5L12 4L11 4L11 3L10 3L10 2L11 2L11 1L12 1L12 3L13 3L13 4L14 4L14 5L16 5L16 4L17 4L17 3L16 3L16 4L15 4L15 1L17 1L17 0L14 0L14 1L13 1L13 0L11 0L11 1L10 1L10 0ZM13 2L13 3L14 3L14 2ZM9 6L9 7L10 7L10 6ZM4 9L4 10L3 10L3 12L4 12L4 13L5 13L5 12L7 12L7 11L6 11L6 10L5 10L5 9ZM9 9L9 10L10 10L10 9ZM12 9L12 10L13 10L13 9ZM4 11L4 12L5 12L5 11ZM20 12L20 13L17 13L17 14L16 14L16 16L15 16L15 20L14 20L14 19L13 19L13 21L16 21L16 16L18 16L18 15L19 15L19 14L20 14L20 13L22 13L22 12ZM4 14L4 15L3 15L3 16L5 16L5 14ZM6 15L6 16L7 16L7 15ZM11 15L11 17L10 17L10 18L11 18L11 17L12 17L12 18L14 18L14 15ZM12 16L12 17L13 17L13 16ZM17 17L17 20L20 20L20 17ZM18 18L18 19L19 19L19 18ZM21 19L21 20L22 20L22 19ZM11 20L11 21L12 21L12 20ZM10 23L10 24L11 24L11 23ZM0 0L0 7L7 7L7 0ZM1 1L1 6L6 6L6 1ZM2 2L2 5L5 5L5 2ZM18 0L18 7L25 7L25 0ZM19 1L19 6L24 6L24 1ZM20 2L20 5L23 5L23 2ZM0 18L0 25L7 25L7 18ZM1 19L1 24L6 24L6 19ZM2 20L2 23L5 23L5 20Z" fill="#000000"/></g></g></svg>
