<?xml version="1.0" encoding="UTF-8"?>
<svg xmlns="http://www.w3.org/2000/svg" version="1.1" width="100" height="100" viewBox="0 0 100 100"><rect x="0" y="0" width="100" height="100" fill="#ffffff"/><g transform="scale(4)"><g transform="translate(0,0)"><path fill-rule="evenodd" d="M11 0L11 1L10 1L10 2L9 2L9 1L8 1L8 2L9 2L9 3L8 3L8 4L9 4L9 5L8 5L8 7L9 7L9 8L6 8L6 9L5 9L5 8L0 8L0 17L1 17L1 14L2 14L2 12L3 12L3 11L5 11L5 12L4 12L4 13L3 13L3 14L4 14L4 15L2 15L2 17L3 17L3 16L4 16L4 17L8 17L8 19L10 19L10 20L11 20L11 18L12 18L12 17L13 17L13 19L14 19L14 20L12 20L12 21L11 21L11 22L12 22L12 24L11 24L11 23L10 23L10 21L9 21L9 20L8 20L8 25L9 25L9 24L10 24L10 25L15 25L15 24L17 24L17 25L25 25L25 21L24 21L24 19L25 19L25 18L24 18L24 17L25 17L25 16L24 16L24 15L25 15L25 14L24 14L24 13L25 13L25 12L24 12L24 11L25 11L25 10L24 10L24 8L23 8L23 10L22 10L22 11L21 11L21 10L20 10L20 8L19 8L19 10L18 10L18 11L16 11L16 10L17 10L17 9L18 9L18 8L17 8L17 6L16 6L16 5L14 5L14 4L15 4L15 2L16 2L16 3L17 3L17 2L16 2L16 1L17 1L17 0L16 0L16 1L15 1L15 2L14 2L14 3L12 3L12 2L13 2L13 1L14 1L14 0ZM11 1L11 2L12 2L12 1ZM9 3L9 4L11 4L11 3ZM12 4L12 5L9 5L9 7L10 7L10 6L11 6L11 8L10 8L10 9L6 9L6 10L5 10L5 11L6 11L6 12L5 12L5 15L4 15L4 16L5 16L5 15L6 15L6 16L7 16L7 15L8 15L8 17L10 17L10 18L11 18L11 17L12 17L12 16L11 16L11 15L13 15L13 16L14 16L14 18L15 18L15 20L16 20L16 18L15 18L15 16L14 16L14 15L13 15L13 13L12 13L12 14L11 14L11 13L10 13L10 15L8 15L8 13L6 13L6 12L7 12L7 11L8 11L8 12L11 12L11 11L13 11L13 12L15 12L15 13L14 13L14 14L16 14L16 13L17 13L17 14L19 14L19 13L20 13L20 15L18 15L18 16L23 16L23 15L21 15L21 14L22 14L22 13L20 13L20 12L19 12L19 13L17 13L17 12L16 12L16 11L13 11L13 10L16 10L16 9L12 9L12 10L11 10L11 8L12 8L12 6L13 6L13 8L15 8L15 7L16 7L16 6L15 6L15 7L14 7L14 6L13 6L13 4ZM21 8L21 9L22 9L22 8ZM1 9L1 10L4 10L4 9ZM6 10L6 11L7 11L7 10ZM10 10L10 11L11 11L11 10ZM19 10L19 11L20 11L20 10ZM1 11L1 12L2 12L2 11ZM22 11L22 12L23 12L23 11ZM6 14L6 15L7 15L7 14ZM17 17L17 20L20 20L20 17ZM22 17L22 18L23 18L23 17ZM18 18L18 19L19 19L19 18ZM21 19L21 21L22 21L22 22L20 22L20 21L19 21L19 22L17 22L17 21L12 21L12 22L14 22L14 23L13 23L13 24L14 24L14 23L16 23L16 22L17 22L17 23L19 23L19 22L20 22L20 24L24 24L24 22L23 22L23 21L22 21L22 20L23 20L23 19ZM22 22L22 23L23 23L23 22ZM0 0L0 7L7 7L7 0ZM1 1L1 6L6 6L6 1ZM2 2L2 5L5 5L5 2ZM18 0L18 7L25 7L25 0ZM19 1L19 6L24 6L24 1ZM20 2L20 5L23 5L23 2ZM0 18L0 25L7 25L7 18ZM1 19L1 24L6 24L6 19ZM2 20L2 23L5 23L5 20Z" fill="#000000"/></g></g></svg>
